PathFileType	4	(X/Y/Z)	1H_nor_med_right.trc
DataRate	CameraRate	NumFrames	NumMarkers	Units	OrigDataRate	OrigDataStartFrame	OrigNumFrames
250.00	250.00	6	18	mm	250.00	6881	11009
Frame#	Time	c7	r_should	l_should	clavicle	r_upa	r_elb_l	r_elb_m	r_low	r_wri_l	r_wri_m	r_met	l_upa	l_elb_l	l_elb_m	l_low	l_wri_l	l_wri_m	l_met
	X1	Y1	Z1	X2	Y2	Z2	X3	Y3	Z3	X4	Y4	Z4	X5	Y5	Z5	X6	Y6	Z6	X7	Y7	Z7	X8	Y8	Z8	X9	Y9	Z9	X10	Y10	Z10	X11	Y11	Z11	X12	Y12	Z12	X13	Y13	Z13	X14	Y14	Z14	X15	Y15	Z15	X16	Y16	Z16	X17	Y17	Z17	X18	Y18	Z18
6881	27.52000	1215.61121	1425.12573	131.51558	1267.53516	1375.52185	279.81561	1219.75586	1358.74365	-43.55537	1322.10852	1285.84644	110.85136	1300.80225	1174.58057	355.98605	1310.18445	1092.66089	379.27979	1234.15002	1052.60779	350.62604	1357.42944	980.68280	338.27255	1399.28552	883.05035	284.79715	1346.36047	849.51611	329.68207	1446.83447	825.37799	307.10434	1205.20215	1146.87805	-102.48981	1208.91455	1039.37280	-121.50990	1171.28174	1027.02905	-27.56100	1214.57922	916.32379	-116.42756	1234.45508	797.37268	-92.37558	1156.90320	794.69086	-98.82230	1218.31042	720.90460	-137.12766
6882	27.52400	1215.67554	1425.12048	131.50897	1267.68555	1375.44885	279.83850	1219.78809	1358.74683	-43.55942	1322.15955	1285.84082	110.82127	1300.95337	1174.37488	355.74750	1310.39478	1092.27673	378.97778	1234.30737	1052.29785	350.26431	1357.34607	979.86304	338.43140	1398.93042	881.72681	285.47849	1345.80530	848.60114	330.47153	1446.32629	824.04626	308.08472	1205.24023	1146.88416	-102.48487	1208.95435	1039.37573	-121.48510	1171.29346	1027.03235	-27.55024	1214.61157	916.32263	-116.40076	1234.46118	797.37341	-92.35289	1156.91040	794.68671	-98.82178	1218.32056	720.90771	-137.10245
6883	27.52800	1215.74036	1425.11218	131.50829	1267.83826	1375.37061	279.86481	1219.82068	1358.75110	-43.55993	1322.20911	1285.83435	110.79401	1301.10596	1174.16125	355.50531	1310.61072	1091.91101	378.68839	1234.47046	1051.97046	349.87216	1357.25195	979.03772	338.58185	1398.56946	880.41284	286.16833	1345.23914	847.69940	331.27914	1445.81335	822.71106	309.09622	1205.27075	1146.88647	-102.48277	1208.99548	1039.37354	-121.46643	1171.31897	1027.03113	-27.54507	1214.63123	916.31866	-116.38199	1234.47009	797.37738	-92.32752	1156.91956	794.68304	-98.81610	1218.33337	720.90747	-137.07845
6884	27.53200	1215.80603	1425.10205	131.51836	1267.99036	1375.28748	279.89227	1219.85889	1358.75085	-43.56102	1322.25684	1285.81848	110.76638	1301.25732	1173.94470	355.26624	1310.82837	1091.52197	378.37469	1234.62708	1051.64417	349.48508	1357.14502	978.21429	338.72684	1398.20862	879.09088	286.90732	1344.66016	846.78839	332.08127	1445.29126	821.38123	310.14059	1205.30444	1146.88574	-102.47705	1209.02429	1039.37500	-121.45955	1171.34741	1027.02588	-27.53537	1214.65063	916.31732	-116.36732	1234.48035	797.36761	-92.30305	1156.92676	794.69379	-98.80970	1218.34973	720.89246	-137.03943
6885	27.53600	1215.87329	1425.09143	131.52588	1268.14661	1375.20667	279.92105	1219.89795	1358.74683	-43.55868	1322.30896	1285.80066	110.73740	1301.40051	1173.71533	355.02710	1311.03442	1091.11328	378.04581	1234.78931	1051.31018	349.10452	1357.02588	977.39185	338.88339	1397.84924	877.76813	287.66440	1344.08496	845.89771	332.88101	1444.76062	820.04852	311.19855	1205.33606	1146.88074	-102.46628	1209.05334	1039.37573	-121.44303	1171.37231	1027.02771	-27.51892	1214.67334	916.31079	-116.35172	1234.48486	797.35870	-92.28294	1156.93396	794.70251	-98.80243	1218.36450	720.89008	-137.01379
6886	27.54000	1215.94189	1425.08240	131.54221	1268.31140	1375.13037	279.95450	1219.75439	1358.87671	-43.51784	1322.36328	1285.78516	110.71171	1301.53723	1173.48743	354.79889	1311.22852	1090.71729	377.72195	1234.96594	1050.97070	348.72110	1356.90015	976.55768	339.04605	1397.47363	876.43420	288.41733	1343.51208	845.03839	333.70160	1444.21765	818.71948	312.25098	1205.36353	1146.87915	-102.46097	1209.08154	1039.38049	-121.42986	1171.39539	1027.03125	-27.51494	1214.69092	916.30634	-116.33092	1234.49011	797.35809	-92.25953	1156.94470	794.71448	-98.80108	1218.39185	720.88147	-136.99707
